<?xml version="1.0" standalone="no"?>
<!DOCTYPE svg PUBLIC "-//W3C//DTD SVG 20010904//EN"
 "http://www.w3.org/TR/2001/REC-SVG-20010904/DTD/svg10.dtd">
<svg version="1.0" xmlns="http://www.w3.org/2000/svg"
 width="203.000000pt" height="248.000000pt" viewBox="0 0 203.000000 248.000000"
 preserveAspectRatio="xMidYMid meet">

<g transform="translate(0.000000,248.000000) scale(0.100000,-0.100000)"
fill="#000000" stroke="none">
<path d="M0 1240 l0 -1240 353 2 352 3 10 67 c6 36 13 70 18 74 4 4 -7 14 -24
21 -17 7 -33 22 -36 34 -3 11 -9 16 -12 10 -11 -18 -32 5 -41 44 -7 30 -5 46
11 77 22 43 43 51 33 13 -13 -51 91 -118 173 -113 45 3 52 8 69 53 7 19 8 19
12 -3 9 -52 -45 -122 -94 -122 -12 0 -25 6 -27 13 -4 9 -6 9 -6 0 -1 -7 -10
-13 -21 -13 -11 0 -20 -4 -20 -9 0 -4 11 -6 25 -3 23 4 25 2 19 -29 -3 -19
-10 -49 -16 -66 -5 -18 -7 -37 -3 -43 4 -6 75 -10 189 -10 l182 0 -3 55 c-2
52 0 56 23 65 30 12 54 13 53 3 -1 -5 -1 -34 0 -65 l1 -58 405 0 405 0 0 1240
0 1240 -1015 0 -1015 0 0 -1240z m1080 742 c0 -128 14 -147 30 -43 7 44 16 78
20 76 5 -3 13 -27 19 -53 5 -27 21 -79 35 -117 19 -51 22 -73 14 -82 -8 -10
-7 -12 4 -8 10 4 19 -4 29 -27 13 -32 13 -32 19 -8 4 14 2 28 -3 31 -10 7 30
39 49 39 16 0 39 -61 54 -140 7 -36 17 -69 22 -75 6 -6 7 -4 3 6 -4 10 -2 20
4 24 15 8 14 -59 0 -88 -7 -15 -3 -13 14 7 25 31 52 31 63 1 11 -27 -7 -86
-31 -109 -25 -23 -102 -52 -112 -42 -13 13 21 36 50 33 19 -1 32 3 35 13 5 13
3 13 -12 1 -9 -8 -19 -11 -23 -7 -4 3 3 13 15 22 12 8 22 25 23 37 0 21 1 21
9 2 7 -17 9 -16 10 10 2 30 2 30 10 5 l8 -25 1 28 c1 16 -4 27 -12 27 -18 0
-37 -21 -37 -40 0 -9 -11 -27 -25 -40 -29 -27 -31 -21 -10 20 9 17 13 30 10
30 -2 0 -16 -23 -30 -50 -27 -53 -82 -100 -141 -122 -29 -10 -34 -17 -34 -45
0 -28 -8 -38 -55 -73 -42 -31 -56 -48 -61 -75 -14 -76 -45 -63 -58 25 -4 24
-14 52 -22 61 -8 9 -17 32 -20 51 -6 35 -6 35 27 31 23 -3 12 4 -34 21 -111
40 -183 104 -194 171 -5 31 -8 35 -13 20 -4 -11 -3 -26 2 -32 14 -17 -15 -17
-45 -1 -50 26 -75 80 -62 138 7 34 29 50 56 43 18 -5 28 -31 43 -103 2 -14 4
-8 2 13 -1 20 0 37 4 37 3 0 3 24 2 52 -3 49 -3 51 11 33 14 -19 16 -18 22 20
13 85 27 125 44 125 12 0 13 2 3 8 -10 7 -6 21 16 63 16 30 35 53 42 51 8 -2
10 3 6 13 -4 11 -2 14 6 9 7 -5 9 -2 6 7 -3 8 0 23 8 34 18 24 17 20 -2 -44
-8 -30 -17 -74 -20 -99 -5 -54 -9 -59 -29 -42 -9 8 -15 8 -15 2 0 -6 9 -13 19
-17 10 -3 22 -16 26 -28 3 -12 9 -17 11 -10 3 7 17 0 36 -20 l30 -32 -30 40
c-27 38 -29 42 -17 76 7 20 21 51 30 70 27 53 126 180 136 173 5 -3 9 -49 9
-102z m185 -127 c28 -47 27 -59 -4 -68 -17 -4 -19 0 -18 42 0 26 -3 52 -7 59
-4 7 -5 12 -2 12 3 0 17 -20 31 -45z m270 -417 c15 -18 32 -44 38 -58 6 -14
21 -49 34 -78 13 -29 22 -59 20 -65 -2 -7 2 -18 10 -25 8 -8 12 -28 10 -48 -3
-19 -1 -34 3 -34 4 0 8 -40 9 -90 1 -53 -3 -90 -9 -90 -5 0 -7 -6 -5 -12 3 -7
-1 -33 -9 -58 -10 -36 -15 -41 -21 -27 -4 11 -2 37 6 60 18 54 19 209 2 215
-7 2 -13 13 -13 23 0 11 -5 30 -12 42 -6 12 -13 34 -15 49 -1 15 -11 42 -22
61 -11 20 -17 38 -14 41 4 3 -1 14 -9 23 -9 10 -19 28 -22 41 -4 12 -10 22
-14 22 -19 1 -42 29 -36 44 8 20 32 8 69 -36z m-890 -5 c-19 -18 -46 -58 -60
-87 -14 -30 -32 -57 -40 -60 -8 -3 -15 -3 -15 0 0 14 54 104 62 104 4 0 8 5 8
12 0 22 50 77 66 71 11 -4 7 -13 -21 -40z m-120 -182 c-3 -11 -7 -47 -9 -81
-2 -39 -8 -65 -17 -71 -12 -8 -12 -10 1 -19 12 -7 12 -10 1 -10 -7 0 -11 -6
-7 -15 3 -8 0 -15 -6 -15 -7 0 -9 20 -5 63 5 61 33 167 43 167 3 0 3 -9 -1
-19z m736 -28 c-5 -10 -29 -36 -52 -58 l-42 -40 48 58 c51 59 63 69 46 40z
m-101 -97 c0 -2 -8 -10 -17 -17 -16 -13 -17 -12 -4 4 13 16 21 21 21 13z
m-673 -118 c-3 -8 -6 -5 -6 6 -1 11 2 17 5 13 3 -3 4 -12 1 -19z m530 -64 c8
-21 -13 -42 -28 -27 -13 13 -5 43 11 43 6 0 13 -7 17 -16z m-12 -174 c0 -13
-6 -25 -12 -27 -16 -6 -27 21 -19 43 9 23 31 11 31 -16z m-444 -111 c14 -7 18
-16 14 -30 -4 -12 -1 -21 9 -25 9 -3 16 -17 16 -29 0 -13 5 -27 10 -30 6 -3
10 -15 10 -26 0 -14 -7 -19 -27 -19 -20 0 -24 -3 -14 -9 8 -5 11 -16 8 -24 -6
-16 -27 -13 -78 7 -15 7 -49 56 -49 73 0 17 61 123 71 123 6 0 19 -5 30 -11z
m436 -35 c8 -21 -13 -42 -28 -27 -13 13 -5 43 11 43 6 0 13 -7 17 -16z m549
-94 c6 -53 5 -56 -30 -92 -21 -21 -42 -38 -47 -38 -15 0 -79 31 -80 39 0 3 -3
19 -5 35 -3 19 1 35 13 47 27 27 37 41 50 72 9 19 20 27 37 27 14 0 28 5 32
12 9 15 21 -25 30 -102z m-236 -281 c0 -33 -52 -95 -70 -84 -5 3 -10 0 -10 -7
0 -9 -3 -9 -10 2 -8 13 -10 13 -10 -2 0 -12 -12 -19 -44 -23 -48 -8 -109 2
-101 15 3 4 -3 6 -13 3 -23 -6 -52 27 -58 66 l-5 31 43 -23 c37 -21 53 -24
117 -20 86 4 105 13 126 54 19 35 35 30 35 -12z"/>
<path d="M1131 1964 c0 -11 3 -14 6 -6 3 7 2 16 -1 19 -3 4 -6 -2 -5 -13z"/>
<path d="M1143 1724 l-28 -26 33 22 c29 20 39 30 28 30 -3 0 -18 -12 -33 -26z"/>
<path d="M895 1673 c16 -18 27 -33 24 -33 -2 0 -22 7 -44 15 -55 19 -79 18
-106 -5 l-24 -19 38 11 c31 9 48 8 93 -6 31 -10 59 -15 62 -11 3 3 -12 22 -33
43 -33 30 -34 31 -10 5z"/>
<path d="M1011 1628 c-8 -18 -16 -37 -18 -43 -3 -5 5 5 17 22 12 18 20 37 18
43 -2 6 -10 -4 -17 -22z"/>
<path d="M1152 1644 c-37 -26 -25 -34 42 -27 37 3 77 1 96 -5 24 -9 31 -9 27
1 -6 19 -75 31 -123 20 -47 -11 -54 -8 -26 13 24 19 11 17 -16 -2z"/>
<path d="M646 1604 c-10 -26 -7 -29 8 -9 13 18 14 18 25 -3 10 -18 9 -22 -3
-22 -8 0 -18 -5 -22 -12 -5 -8 0 -9 14 -6 12 4 25 2 28 -3 3 -5 1 -9 -5 -9
-11 0 -8 -27 5 -40 13 -13 9 72 -5 98 -14 26 -36 29 -45 6z"/>
<path d="M1315 1580 c-3 -6 1 -7 9 -4 18 7 21 14 7 14 -6 0 -13 -4 -16 -10z"/>
<path d="M1190 1560 l-35 -6 38 -5 c20 -3 42 -2 48 2 17 10 -12 16 -51 9z"/>
<path d="M1275 1560 c4 -6 11 -8 16 -5 14 9 11 15 -7 15 -8 0 -12 -5 -9 -10z"/>
<path d="M767 1553 c-12 -11 -7 -63 8 -93 13 -25 53 -62 93 -84 28 -16 9 4
-22 24 -30 18 -76 75 -76 94 0 3 9 6 20 6 11 0 20 -4 20 -10 0 -5 8 -10 18
-10 16 1 16 1 0 11 -10 5 -18 18 -18 27 0 13 -2 14 -9 4 -6 -10 -10 -10 -20 2
-7 8 -10 20 -6 26 7 11 2 14 -8 3z"/>
<path d="M815 1550 c17 -4 39 -8 50 -8 16 0 15 2 -5 8 -14 4 -36 8 -50 8 -22
0 -22 -1 5 -8z"/>
<path d="M908 1533 c7 -3 16 -2 19 1 4 3 -2 6 -13 5 -11 0 -14 -3 -6 -6z"/>
<path d="M958 1523 c7 -3 16 -2 19 1 4 3 -2 6 -13 5 -11 0 -14 -3 -6 -6z"/>
<path d="M1033 1513 c9 -2 25 -2 35 0 9 3 1 5 -18 5 -19 0 -27 -2 -17 -5z"/>
<path d="M1238 1513 c12 -2 30 -2 40 0 9 3 -1 5 -23 4 -22 0 -30 -2 -17 -4z"/>
<path d="M1307 1480 c-14 -14 -15 -19 -5 -23 10 -3 8 -11 -7 -32 -18 -25 -52
-47 -115 -74 -24 -11 -24 -11 5 -6 63 12 153 99 143 138 -2 11 -7 10 -21 -3z"/>
<path d="M888 1463 c7 -3 16 -2 19 1 4 3 -2 6 -13 5 -11 0 -14 -3 -6 -6z"/>
<path d="M1230 1453 l-25 -13 25 0 c14 0 31 4 38 9 24 15 -10 19 -38 4z"/>
<path d="M928 1453 c7 -3 16 -2 19 1 4 3 -2 6 -13 5 -11 0 -14 -3 -6 -6z"/>
<path d="M1013 1443 c9 -2 25 -2 35 0 9 3 1 5 -18 5 -19 0 -27 -2 -17 -5z"/>
<path d="M958 1343 c7 -3 16 -2 19 1 4 3 -2 6 -13 5 -11 0 -14 -3 -6 -6z"/>
<path d="M1008 1333 c7 -3 16 -2 19 1 4 3 -2 6 -13 5 -11 0 -14 -3 -6 -6z"/>
<path d="M1118 1293 c6 -2 18 -2 25 0 6 3 1 5 -13 5 -14 0 -19 -2 -12 -5z"/>
</g>
</svg>
